<svg id="Layer_1" data-name="Layer 1" xmlns="http://www.w3.org/2000/svg" viewBox="0 0 321.26 312.65"><defs><style>.cls-1{fill:#004074;}</style></defs><path class="cls-1" d="M288.28,123.18l13.87-20.63-4.83-10.8-24.86-5.38q-3.49-5.73-7.54-11.11l5.64-25.05-8.48-7.13L237.24,47.5a138.37,138.37,0,0,0-12.1-8.15l-3.47-24.42L211.2,11.28,189.35,24.34a129.8,129.8,0,0,0-13.94-2.81L161.58,0l-11,1L136.5,21.47a136.82,136.82,0,0,0-14.19,2.79L101.94,9.9,92.11,15,86.88,38.8a134.85,134.85,0,0,0-13.23,8.85l-23.94-5.5L42.54,50.6l4.17,24.06A137.71,137.71,0,0,0,37.85,88L14.68,90.42l-4,10.32L23.36,124c-1.05,4.3-1.89,8.69-2.52,13.14L0,150.1l.38,11.19,20.47,14.33a136.05,136.05,0,0,0,2.86,14.58l-14.64,20,4.54,10.24,25.11,5.81a135.5,135.5,0,0,0,8.4,12.44l-6.4,22.78,7.84,8L74.81,266a139.11,139.11,0,0,0,12.39,8.14L90,298.41l10.28,4.45L123,288.59c3.94.92,9.61,2.08,13.67,2.65l12.85,21.16,11.19.25,14.86-21.41a137.44,137.44,0,0,0,13.65-2.61l22.38,14,9.34-4.46L225,274.31a131.53,131.53,0,0,0,13.69-9.09L262,271l7.58-8.09-4.86-23.75a135.48,135.48,0,0,0,8.48-12.61l24.34-4.74,4.65-9.77-14-22.09c1-4,1.83-9.27,2.47-13.45l21.61-14.13v-9.09L290.7,136C290.15,132.45,289.11,126.64,288.28,123.18ZM156.33,270.93c-66.93,0-115.15-51.49-115.15-115a115.07,115.07,0,0,1,115.14-115h0c63.6,0,115.15,53,115.15,115C271.48,219.44,221.24,270.93,156.33,270.93Z"/><circle class="cls-1" cx="101.75" cy="96.26" r="3.25"/><path class="cls-1" d="M204.64,136.86,223,80.64a78,78,0,0,0-7.27-5.38l-16.22,52a3.08,3.08,0,1,1-4.25-1,2.64,2.64,0,0,1,.44-.23l16.52-53c-2.35-1.38-4.85-2.7-7.53-4l-18.72,60,14.74,18.26a7.17,7.17,0,1,1-3.16,2.5l-16-19.86,19.5-62.49q-4.25-1.78-9-3.32l-21.46,67.6,13.14,23.3h.44a7.16,7.16,0,1,1-4.24,1.42l-13.68-24.26,22-69.2-2.38-.65-22.57,71-22.07,13.28a7.1,7.1,0,1,1-.81-4.18l19.52-11.74,22-69.28q-5.1-1.19-10.74-2.08l-19.56,60.86L129.87,128a6.85,6.85,0,0,1,.12,1.28,7.13,7.13,0,1,1-2-4.93l20.39-7.24,18.75-58.33c-1.71-.22-3.44-.43-5.21-.61-1.77,0-3.54,0-5.3.1L140.4,110.54a3.08,3.08,0,1,1-4.26-.93,3.68,3.68,0,0,1,.44-.23l15.84-50.95c-3.4.22-6.76.56-10.06,1L126,112.86,111.55,108,80.74,201.29c1.74,5.2,4.51,11.12,9.4,15.06L102.47,179a7.12,7.12,0,1,1,3.9.94L93.61,218.59a21,21,0,0,0,8.54,2.17c3.06.15,5.85.21,8.4.22l17.64-53.74A3.46,3.46,0,1,1,133,168a3.33,3.33,0,0,1-1,.52l-17.22,52.43c3-.06,5.51-.2,7.45-.34l16.67-50.33a3.35,3.35,0,1,1,3.74,1.44l-16,48.47.45-.06-6.44,17.56a34.07,34.07,0,0,0,8.67,1.52c3.6-11.07,23.37-71.73,27.27-83.73a7.11,7.11,0,1,1,4.14,1.33h-.37c-3.8,11.71-22,67.73-26.72,82.06a8.29,8.29,0,0,0,6.41-5.08c3.58-9.25,7.33-23.58,14.91-33.75,1-1,1.8-1.85,2.59-2.6l6.78-19.27a3.2,3.2,0,1,1,4.47.72,3.56,3.56,0,0,1-.6.34L163,194a17.92,17.92,0,0,1,5.79-.53c.64,0,1.39,0,2.22.06L174.49,181a3,3,0,0,1-.49-1.66,3.08,3.08,0,1,1,4.31,2.82l-3.16,11.41c8.9-.17,21.94-1.78,27-10.58,6.59-11.34,6.75-15.42,6.75-15.42a29.59,29.59,0,0,0,5.24.16l8.47-24.57Z"/><circle class="cls-1" cx="106.03" cy="172.84" r="3.25"/><path class="cls-1" d="M123.35,107.75,138,60.09q-3.18.51-6.26,1.17L119,98a3,3,0,1,1-4.19-.67l.19-.13,12.12-34.9c-2.21.54-4.38,1.13-6.49,1.77l-5.42,14.2a3,3,0,1,1-4-1.31l.3-.13,4.28-11.18C100.29,71,88.59,78.82,84.49,87.43c-2,4.41-.59,5.83-9.84,13.58-3.25,2.5-4.41,7.17-4.91,10.83-.38,2.73-4.81,4.64-7.84,9.56l26.44,9.31,9.77-28.34a7.12,7.12,0,1,1,3.88,1L90.8,135.82,60.2,125a18.35,18.35,0,0,0-.71,2.64c-1.59,5.65-2.94,15.43-3.71,23.93l5.32-3.52a6.82,6.82,0,0,1-.45-2.45,7.14,7.14,0,1,1,2.83,5.67l-8.11,5.36c-.19,2.86-.3,5.4-.3,7.34a33.47,33.47,0,0,0,.47,5.56L72,163.29a7.34,7.34,0,0,1-.1-1.15,7.15,7.15,0,1,1,1.84,4.76L56.4,173.52c2.28,8.29,8.11,18.09,21.83,22.63L109,102.89Z"/><circle class="cls-1" cx="67.78" cy="145.64" r="3.25"/><circle class="cls-1" cx="79.03" cy="162.14" r="3.25"/><circle class="cls-1" cx="160.67" cy="149.68" r="3.25"/><path class="cls-1" d="M230,114.87a7.13,7.13,0,1,1-4-.87l7.09-23a69.32,69.32,0,0,0-6.82-7.41l-16.63,50.84,18,6.26-9.14,26.53c5.29-1,11.52-3.65,15.27-10.23,3.75-4.84,4.58-11.5,8.58-15.25s4.42-8.34,4.09-17.75c-.15-4.21-1.82-16.24-10.43-29Z"/><circle class="cls-1" cx="226.49" cy="121.09" r="3.25"/><circle class="cls-1" cx="203.36" cy="154.01" r="3.25"/><circle class="cls-1" cx="134.11" cy="145.8" r="3.25"/><circle class="cls-1" cx="122.86" cy="129.18" r="3.25"/><circle class="cls-1" cx="184.15" cy="162.18" r="3.25"/></svg>